<svg xmlns="http://www.w3.org/2000/svg" viewBox="0 0 720 460" role="img" aria-labelledby="title desc">
  <title id="title">30-mile coverage radius from New Port Richey, Florida</title>
  <desc id="desc">Stylized map panel with a highlighted 30 mile service radius around New Port Richey.</desc>
  <defs>
    <linearGradient id="ocean" x1="0" x2="1" y1="0" y2="1">
      <stop offset="0%" stop-color="#e0f2fe" />
      <stop offset="100%" stop-color="#fde68a" />
    </linearGradient>
    <radialGradient id="glow" cx="50%" cy="50%" r="50%">
      <stop offset="0%" stop-color="#f59e0b" stop-opacity="0.55" />
      <stop offset="70%" stop-color="#f59e0b" stop-opacity="0.15" />
      <stop offset="100%" stop-color="#f59e0b" stop-opacity="0" />
    </radialGradient>
  </defs>

  <rect width="720" height="460" rx="28" fill="url(#ocean)" />
  <path d="M40 120c120-70 240-70 360 0s240 70 280-20v220c-80 90-210 110-320 60s-220-40-320 40z" fill="#bfdbfe" opacity="0.6" />
  <path d="M60 300c110-50 200-40 300 20s220 70 300 0v80H60z" fill="#fecaca" opacity="0.45" />

  <circle cx="360" cy="220" r="140" fill="url(#glow)" />
  <circle cx="360" cy="220" r="132" fill="none" stroke="#f59e0b" stroke-width="4" stroke-dasharray="10 8" />
  <circle cx="360" cy="220" r="6" fill="#1e40af" />

  <text x="360" y="188" text-anchor="middle" font-family="Plus Jakarta Sans, Arial, sans-serif" font-size="18" fill="#1e293b">New Port Richey, FL</text>
  <text x="360" y="214" text-anchor="middle" font-family="Plus Jakarta Sans, Arial, sans-serif" font-size="14" fill="#475569">Service hub</text>
  <rect x="254" y="252" width="212" height="34" rx="17" fill="#1e40af" />
  <text x="360" y="274" text-anchor="middle" font-family="Plus Jakarta Sans, Arial, sans-serif" font-size="14" fill="#ffffff">30-mile coverage radius</text>
</svg>
